<?xml version="1.0" encoding="UTF-8" standalone="no"?>
<!DOCTYPE svg PUBLIC "-//W3C//DTD SVG 1.1//EN"
 "http://www.w3.org/Graphics/SVG/1.1/DTD/svg11.dtd">
<!-- Generated by graphviz version 2.40.1 (20161225.0304)
 -->
<!-- Title: controllers_diagram Pages: 1 -->
<svg width="694pt" height="678pt"
 viewBox="0.00 0.00 694.44 678.00" xmlns="http://www.w3.org/2000/svg" xmlns:xlink="http://www.w3.org/1999/xlink">
<g id="graph0" class="graph" transform="scale(1 1) rotate(0) translate(4 674)">
<title>controllers_diagram</title>
<polygon fill="transparent" stroke="transparent" points="-4,4 -4,-674 690.4414,-674 690.4414,4 -4,4"/>
<!-- _diagram_info -->
<g id="node1" class="node">
<title>_diagram_info</title>
<text text-anchor="start" x="128" y="-178.6" font-family="Times,serif" font-size="13.00" fill="#000000">Controllers diagram</text>
<text text-anchor="start" x="128" y="-165.6" font-family="Times,serif" font-size="13.00" fill="#000000">Date: Jun 01 2017 &#45; 20:18</text>
<text text-anchor="start" x="128" y="-152.6" font-family="Times,serif" font-size="13.00" fill="#000000">Migration version: 20160510201249</text>
<text text-anchor="start" x="128" y="-139.6" font-family="Times,serif" font-size="13.00" fill="#000000">Generated by RailRoady 1.4.2</text>
<text text-anchor="start" x="128" y="-126.6" font-family="Times,serif" font-size="13.00" fill="#000000">http://railroady.prestonlee.com</text>
</g>
<!-- AboutController -->
<g id="node2" class="node">
<title>AboutController</title>
<path fill="none" stroke="#000000" d="M297,-570.5C297,-570.5 381.5449,-570.5 381.5449,-570.5 387.5449,-570.5 393.5449,-576.5 393.5449,-582.5 393.5449,-582.5 393.5449,-648.5 393.5449,-648.5 393.5449,-654.5 387.5449,-660.5 381.5449,-660.5 381.5449,-660.5 297,-660.5 297,-660.5 291,-660.5 285,-654.5 285,-648.5 285,-648.5 285,-582.5 285,-582.5 285,-576.5 291,-570.5 297,-570.5"/>
<text text-anchor="middle" x="339.2725" y="-645.3" font-family="Times,serif" font-size="14.00" fill="#000000">AboutController</text>
<polyline fill="none" stroke="#000000" points="285,-638.5 393.5449,-638.5 "/>
<text text-anchor="start" x="293" y="-623.3" font-family="Times,serif" font-size="14.00" fill="#000000">index</text>
<polyline fill="none" stroke="#000000" points="285,-616.5 393.5449,-616.5 "/>
<polyline fill="none" stroke="#000000" points="285,-592.5 393.5449,-592.5 "/>
<text text-anchor="start" x="293" y="-577.3" font-family="Times,serif" font-size="14.00" fill="#000000">_layout</text>
</g>
<!-- ApplicationController -->
<g id="node3" class="node">
<title>ApplicationController</title>
<path fill="none" stroke="#000000" d="M537,-420.5C537,-420.5 652.6416,-420.5 652.6416,-420.5 658.6416,-420.5 664.6416,-426.5 664.6416,-432.5 664.6416,-432.5 664.6416,-526.5 664.6416,-526.5 664.6416,-532.5 658.6416,-538.5 652.6416,-538.5 652.6416,-538.5 537,-538.5 537,-538.5 531,-538.5 525,-532.5 525,-526.5 525,-526.5 525,-432.5 525,-432.5 525,-426.5 531,-420.5 537,-420.5"/>
<text text-anchor="middle" x="594.8208" y="-523.3" font-family="Times,serif" font-size="14.00" fill="#000000">ApplicationController</text>
<polyline fill="none" stroke="#000000" points="525,-516.5 664.6416,-516.5 "/>
<polyline fill="none" stroke="#000000" points="525,-492.5 664.6416,-492.5 "/>
<text text-anchor="start" x="533" y="-477.3" font-family="Times,serif" font-size="14.00" fill="#000000">current_folder</text>
<text text-anchor="start" x="533" y="-463.3" font-family="Times,serif" font-size="14.00" fill="#000000">root_folder</text>
<text text-anchor="start" x="533" y="-449.3" font-family="Times,serif" font-size="14.00" fill="#000000">set_locale</text>
<polyline fill="none" stroke="#000000" points="525,-442.5 664.6416,-442.5 "/>
<text text-anchor="start" x="533" y="-427.3" font-family="Times,serif" font-size="14.00" fill="#000000">_layout</text>
</g>
<!-- FavoritesController -->
<g id="node4" class="node">
<title>FavoritesController</title>
<path fill="none" stroke="#000000" d="M42,-285.5C42,-285.5 143.6484,-285.5 143.6484,-285.5 149.6484,-285.5 155.6484,-291.5 155.6484,-297.5 155.6484,-297.5 155.6484,-405.5 155.6484,-405.5 155.6484,-411.5 149.6484,-417.5 143.6484,-417.5 143.6484,-417.5 42,-417.5 42,-417.5 36,-417.5 30,-411.5 30,-405.5 30,-405.5 30,-297.5 30,-297.5 30,-291.5 36,-285.5 42,-285.5"/>
<text text-anchor="middle" x="92.8242" y="-402.3" font-family="Times,serif" font-size="14.00" fill="#000000">FavoritesController</text>
<polyline fill="none" stroke="#000000" points="30,-395.5 155.6484,-395.5 "/>
<text text-anchor="start" x="38" y="-380.3" font-family="Times,serif" font-size="14.00" fill="#000000">create</text>
<text text-anchor="start" x="38" y="-366.3" font-family="Times,serif" font-size="14.00" fill="#000000">destroy</text>
<text text-anchor="start" x="38" y="-352.3" font-family="Times,serif" font-size="14.00" fill="#000000">index</text>
<polyline fill="none" stroke="#000000" points="30,-345.5 155.6484,-345.5 "/>
<polyline fill="none" stroke="#000000" points="30,-321.5 155.6484,-321.5 "/>
<text text-anchor="start" x="38" y="-306.3" font-family="Times,serif" font-size="14.00" fill="#000000">_layout</text>
<text text-anchor="start" x="38" y="-292.3" font-family="Times,serif" font-size="14.00" fill="#000000">initialize_item</text>
</g>
<!-- FoldersController -->
<g id="node5" class="node">
<title>FoldersController</title>
<path fill="none" stroke="#000000" d="M87,-495.5C87,-495.5 178.5449,-495.5 178.5449,-495.5 184.5449,-495.5 190.5449,-501.5 190.5449,-507.5 190.5449,-507.5 190.5449,-657.5 190.5449,-657.5 190.5449,-663.5 184.5449,-669.5 178.5449,-669.5 178.5449,-669.5 87,-669.5 87,-669.5 81,-669.5 75,-663.5 75,-657.5 75,-657.5 75,-507.5 75,-507.5 75,-501.5 81,-495.5 87,-495.5"/>
<text text-anchor="middle" x="132.7725" y="-654.3" font-family="Times,serif" font-size="14.00" fill="#000000">FoldersController</text>
<polyline fill="none" stroke="#000000" points="75,-647.5 190.5449,-647.5 "/>
<text text-anchor="start" x="83" y="-632.3" font-family="Times,serif" font-size="14.00" fill="#000000">create</text>
<text text-anchor="start" x="83" y="-618.3" font-family="Times,serif" font-size="14.00" fill="#000000">destroy</text>
<text text-anchor="start" x="83" y="-604.3" font-family="Times,serif" font-size="14.00" fill="#000000">index</text>
<text text-anchor="start" x="83" y="-590.3" font-family="Times,serif" font-size="14.00" fill="#000000">show</text>
<text text-anchor="start" x="83" y="-576.3" font-family="Times,serif" font-size="14.00" fill="#000000">update</text>
<polyline fill="none" stroke="#000000" points="75,-569.5 190.5449,-569.5 "/>
<polyline fill="none" stroke="#000000" points="75,-545.5 190.5449,-545.5 "/>
<text text-anchor="start" x="83" y="-530.3" font-family="Times,serif" font-size="14.00" fill="#000000">_layout</text>
<text text-anchor="start" x="83" y="-516.3" font-family="Times,serif" font-size="14.00" fill="#000000">folder_params</text>
<text text-anchor="start" x="83" y="-502.3" font-family="Times,serif" font-size="14.00" fill="#000000">set_folder</text>
</g>
<!-- HelpController -->
<g id="node6" class="node">
<title>HelpController</title>
<path fill="none" stroke="#000000" d="M12,-.5C12,-.5 88.7588,-.5 88.7588,-.5 94.7588,-.5 100.7588,-6.5 100.7588,-12.5 100.7588,-12.5 100.7588,-78.5 100.7588,-78.5 100.7588,-84.5 94.7588,-90.5 88.7588,-90.5 88.7588,-90.5 12,-90.5 12,-90.5 6,-90.5 0,-84.5 0,-78.5 0,-78.5 0,-12.5 0,-12.5 0,-6.5 6,-.5 12,-.5"/>
<text text-anchor="middle" x="50.3794" y="-75.3" font-family="Times,serif" font-size="14.00" fill="#000000">HelpController</text>
<polyline fill="none" stroke="#000000" points="0,-68.5 100.7588,-68.5 "/>
<text text-anchor="start" x="8" y="-53.3" font-family="Times,serif" font-size="14.00" fill="#000000">index</text>
<polyline fill="none" stroke="#000000" points="0,-46.5 100.7588,-46.5 "/>
<polyline fill="none" stroke="#000000" points="0,-22.5 100.7588,-22.5 "/>
<text text-anchor="start" x="8" y="-7.3" font-family="Times,serif" font-size="14.00" fill="#000000">_layout</text>
</g>
<!-- HomeController -->
<g id="node7" class="node">
<title>HomeController</title>
<path fill="none" stroke="#000000" d="M582,-570.5C582,-570.5 665.7588,-570.5 665.7588,-570.5 671.7588,-570.5 677.7588,-576.5 677.7588,-582.5 677.7588,-582.5 677.7588,-648.5 677.7588,-648.5 677.7588,-654.5 671.7588,-660.5 665.7588,-660.5 665.7588,-660.5 582,-660.5 582,-660.5 576,-660.5 570,-654.5 570,-648.5 570,-648.5 570,-582.5 570,-582.5 570,-576.5 576,-570.5 582,-570.5"/>
<text text-anchor="middle" x="623.8794" y="-645.3" font-family="Times,serif" font-size="14.00" fill="#000000">HomeController</text>
<polyline fill="none" stroke="#000000" points="570,-638.5 677.7588,-638.5 "/>
<text text-anchor="start" x="578" y="-623.3" font-family="Times,serif" font-size="14.00" fill="#000000">index</text>
<polyline fill="none" stroke="#000000" points="570,-616.5 677.7588,-616.5 "/>
<polyline fill="none" stroke="#000000" points="570,-592.5 677.7588,-592.5 "/>
<text text-anchor="start" x="578" y="-577.3" font-family="Times,serif" font-size="14.00" fill="#000000">_layout</text>
</g>
<!-- ItemsController -->
<g id="node8" class="node">
<title>ItemsController</title>
<path fill="none" stroke="#000000" d="M387,-375.5C387,-375.5 487.0693,-375.5 487.0693,-375.5 493.0693,-375.5 499.0693,-381.5 499.0693,-387.5 499.0693,-387.5 499.0693,-523.5 499.0693,-523.5 499.0693,-529.5 493.0693,-535.5 487.0693,-535.5 487.0693,-535.5 387,-535.5 387,-535.5 381,-535.5 375,-529.5 375,-523.5 375,-523.5 375,-387.5 375,-387.5 375,-381.5 381,-375.5 387,-375.5"/>
<text text-anchor="middle" x="437.0347" y="-520.3" font-family="Times,serif" font-size="14.00" fill="#000000">ItemsController</text>
<polyline fill="none" stroke="#000000" points="375,-513.5 499.0693,-513.5 "/>
<text text-anchor="start" x="383" y="-498.3" font-family="Times,serif" font-size="14.00" fill="#000000">create</text>
<text text-anchor="start" x="383" y="-484.3" font-family="Times,serif" font-size="14.00" fill="#000000">destroy</text>
<text text-anchor="start" x="383" y="-470.3" font-family="Times,serif" font-size="14.00" fill="#000000">show</text>
<polyline fill="none" stroke="#000000" points="375,-463.5 499.0693,-463.5 "/>
<polyline fill="none" stroke="#000000" points="375,-439.5 499.0693,-439.5 "/>
<text text-anchor="start" x="383" y="-424.3" font-family="Times,serif" font-size="14.00" fill="#000000">_layout</text>
<text text-anchor="start" x="383" y="-410.3" font-family="Times,serif" font-size="14.00" fill="#000000">current_folder</text>
<text text-anchor="start" x="383" y="-396.3" font-family="Times,serif" font-size="14.00" fill="#000000">ensure_can_upload</text>
<text text-anchor="start" x="383" y="-382.3" font-family="Times,serif" font-size="14.00" fill="#000000">item_params</text>
</g>
<!-- RecentsController -->
<g id="node9" class="node">
<title>RecentsController</title>
<path fill="none" stroke="#000000" d="M432,-570.5C432,-570.5 525.8623,-570.5 525.8623,-570.5 531.8623,-570.5 537.8623,-576.5 537.8623,-582.5 537.8623,-582.5 537.8623,-648.5 537.8623,-648.5 537.8623,-654.5 531.8623,-660.5 525.8623,-660.5 525.8623,-660.5 432,-660.5 432,-660.5 426,-660.5 420,-654.5 420,-648.5 420,-648.5 420,-582.5 420,-582.5 420,-576.5 426,-570.5 432,-570.5"/>
<text text-anchor="middle" x="478.9312" y="-645.3" font-family="Times,serif" font-size="14.00" fill="#000000">RecentsController</text>
<polyline fill="none" stroke="#000000" points="420,-638.5 537.8623,-638.5 "/>
<text text-anchor="start" x="428" y="-623.3" font-family="Times,serif" font-size="14.00" fill="#000000">index</text>
<polyline fill="none" stroke="#000000" points="420,-616.5 537.8623,-616.5 "/>
<polyline fill="none" stroke="#000000" points="420,-592.5 537.8623,-592.5 "/>
<text text-anchor="start" x="428" y="-577.3" font-family="Times,serif" font-size="14.00" fill="#000000">_layout</text>
</g>
<!-- RestoreController -->
<g id="node10" class="node">
<title>RestoreController</title>
<path fill="none" stroke="#000000" d="M567,-15.5C567,-15.5 659.3105,-15.5 659.3105,-15.5 665.3105,-15.5 671.3105,-21.5 671.3105,-27.5 671.3105,-27.5 671.3105,-107.5 671.3105,-107.5 671.3105,-113.5 665.3105,-119.5 659.3105,-119.5 659.3105,-119.5 567,-119.5 567,-119.5 561,-119.5 555,-113.5 555,-107.5 555,-107.5 555,-27.5 555,-27.5 555,-21.5 561,-15.5 567,-15.5"/>
<text text-anchor="middle" x="613.1553" y="-104.3" font-family="Times,serif" font-size="14.00" fill="#000000">RestoreController</text>
<polyline fill="none" stroke="#000000" points="555,-97.5 671.3105,-97.5 "/>
<text text-anchor="start" x="563" y="-82.3" font-family="Times,serif" font-size="14.00" fill="#000000">index</text>
<text text-anchor="start" x="563" y="-68.3" font-family="Times,serif" font-size="14.00" fill="#000000">update</text>
<polyline fill="none" stroke="#000000" points="555,-61.5 671.3105,-61.5 "/>
<polyline fill="none" stroke="#000000" points="555,-37.5 671.3105,-37.5 "/>
<text text-anchor="start" x="563" y="-22.3" font-family="Times,serif" font-size="14.00" fill="#000000">_layout</text>
</g>
<!-- ShareController -->
<g id="node11" class="node">
<title>ShareController</title>
<path fill="none" stroke="#000000" d="M237,-375.5C237,-375.5 333.9521,-375.5 333.9521,-375.5 339.9521,-375.5 345.9521,-381.5 345.9521,-387.5 345.9521,-387.5 345.9521,-523.5 345.9521,-523.5 345.9521,-529.5 339.9521,-535.5 333.9521,-535.5 333.9521,-535.5 237,-535.5 237,-535.5 231,-535.5 225,-529.5 225,-523.5 225,-523.5 225,-387.5 225,-387.5 225,-381.5 231,-375.5 237,-375.5"/>
<text text-anchor="middle" x="285.4761" y="-520.3" font-family="Times,serif" font-size="14.00" fill="#000000">ShareController</text>
<polyline fill="none" stroke="#000000" points="225,-513.5 345.9521,-513.5 "/>
<text text-anchor="start" x="233" y="-498.3" font-family="Times,serif" font-size="14.00" fill="#000000">create</text>
<text text-anchor="start" x="233" y="-484.3" font-family="Times,serif" font-size="14.00" fill="#000000">destroy</text>
<text text-anchor="start" x="233" y="-470.3" font-family="Times,serif" font-size="14.00" fill="#000000">index</text>
<text text-anchor="start" x="233" y="-456.3" font-family="Times,serif" font-size="14.00" fill="#000000">show</text>
<polyline fill="none" stroke="#000000" points="225,-449.5 345.9521,-449.5 "/>
<polyline fill="none" stroke="#000000" points="225,-425.5 345.9521,-425.5 "/>
<text text-anchor="start" x="233" y="-410.3" font-family="Times,serif" font-size="14.00" fill="#000000">_layout</text>
<text text-anchor="start" x="233" y="-396.3" font-family="Times,serif" font-size="14.00" fill="#000000">ensure_has_access</text>
<text text-anchor="start" x="233" y="-382.3" font-family="Times,serif" font-size="14.00" fill="#000000">initialize_share</text>
</g>
<!-- Users::ConfirmationsController -->
<g id="node12" class="node">
<title>Users::ConfirmationsController</title>
<path fill="none" stroke="#000000" d="M417,-165.5C417,-165.5 586.3242,-165.5 586.3242,-165.5 592.3242,-165.5 598.3242,-171.5 598.3242,-177.5 598.3242,-177.5 598.3242,-245.5 598.3242,-245.5 598.3242,-251.5 592.3242,-257.5 586.3242,-257.5 586.3242,-257.5 417,-257.5 417,-257.5 411,-257.5 405,-251.5 405,-245.5 405,-245.5 405,-177.5 405,-177.5 405,-171.5 411,-165.5 417,-165.5"/>
<text text-anchor="middle" x="501.6621" y="-242.3" font-family="Times,serif" font-size="14.00" fill="#000000">Users::ConfirmationsController</text>
<polyline fill="none" stroke="#000000" points="405,-235.5 598.3242,-235.5 "/>
<polyline fill="none" stroke="#000000" points="405,-211.5 598.3242,-211.5 "/>
<polyline fill="none" stroke="#000000" points="405,-187.5 598.3242,-187.5 "/>
<text text-anchor="start" x="413" y="-172.3" font-family="Times,serif" font-size="14.00" fill="#000000">_layout</text>
</g>
<!-- Users::RegistrationsController -->
<g id="node13" class="node">
<title>Users::RegistrationsController</title>
<path fill="none" stroke="#000000" d="M192,-225.5C192,-225.5 365.9316,-225.5 365.9316,-225.5 371.9316,-225.5 377.9316,-231.5 377.9316,-237.5 377.9316,-237.5 377.9316,-331.5 377.9316,-331.5 377.9316,-337.5 371.9316,-343.5 365.9316,-343.5 365.9316,-343.5 192,-343.5 192,-343.5 186,-343.5 180,-337.5 180,-331.5 180,-331.5 180,-237.5 180,-237.5 180,-231.5 186,-225.5 192,-225.5"/>
<text text-anchor="middle" x="278.9658" y="-328.3" font-family="Times,serif" font-size="14.00" fill="#000000">Users::RegistrationsController</text>
<polyline fill="none" stroke="#000000" points="180,-321.5 377.9316,-321.5 "/>
<polyline fill="none" stroke="#000000" points="180,-297.5 377.9316,-297.5 "/>
<text text-anchor="start" x="188" y="-282.3" font-family="Times,serif" font-size="14.00" fill="#000000">_layout_from_proc</text>
<polyline fill="none" stroke="#000000" points="180,-275.5 377.9316,-275.5 "/>
<text text-anchor="start" x="188" y="-260.3" font-family="Times,serif" font-size="14.00" fill="#000000">_layout</text>
<text text-anchor="start" x="188" y="-246.3" font-family="Times,serif" font-size="14.00" fill="#000000">configure_permitted_parameters</text>
<text text-anchor="start" x="188" y="-232.3" font-family="Times,serif" font-size="14.00" fill="#000000">controller_layout</text>
</g>
<!-- Users::SessionsController -->
<g id="node14" class="node">
<title>Users::SessionsController</title>
<path fill="none" stroke="#000000" d="M537,-285.5C537,-285.5 674.4414,-285.5 674.4414,-285.5 680.4414,-285.5 686.4414,-291.5 686.4414,-297.5 686.4414,-297.5 686.4414,-377.5 686.4414,-377.5 686.4414,-383.5 680.4414,-389.5 674.4414,-389.5 674.4414,-389.5 537,-389.5 537,-389.5 531,-389.5 525,-383.5 525,-377.5 525,-377.5 525,-297.5 525,-297.5 525,-291.5 531,-285.5 537,-285.5"/>
<text text-anchor="middle" x="605.7207" y="-374.3" font-family="Times,serif" font-size="14.00" fill="#000000">Users::SessionsController</text>
<polyline fill="none" stroke="#000000" points="525,-367.5 686.4414,-367.5 "/>
<polyline fill="none" stroke="#000000" points="525,-343.5 686.4414,-343.5 "/>
<text text-anchor="start" x="533" y="-328.3" font-family="Times,serif" font-size="14.00" fill="#000000">_layout_from_proc</text>
<polyline fill="none" stroke="#000000" points="525,-321.5 686.4414,-321.5 "/>
<text text-anchor="start" x="533" y="-306.3" font-family="Times,serif" font-size="14.00" fill="#000000">_layout</text>
<text text-anchor="start" x="533" y="-292.3" font-family="Times,serif" font-size="14.00" fill="#000000">controller_layout</text>
</g>
<!-- Users::UnlocksController -->
<g id="node15" class="node">
<title>Users::UnlocksController</title>
<path fill="none" stroke="#000000" d="M372,-45.5C372,-45.5 507.8691,-45.5 507.8691,-45.5 513.8691,-45.5 519.8691,-51.5 519.8691,-57.5 519.8691,-57.5 519.8691,-125.5 519.8691,-125.5 519.8691,-131.5 513.8691,-137.5 507.8691,-137.5 507.8691,-137.5 372,-137.5 372,-137.5 366,-137.5 360,-131.5 360,-125.5 360,-125.5 360,-57.5 360,-57.5 360,-51.5 366,-45.5 372,-45.5"/>
<text text-anchor="middle" x="439.9346" y="-122.3" font-family="Times,serif" font-size="14.00" fill="#000000">Users::UnlocksController</text>
<polyline fill="none" stroke="#000000" points="360,-115.5 519.8691,-115.5 "/>
<polyline fill="none" stroke="#000000" points="360,-91.5 519.8691,-91.5 "/>
<polyline fill="none" stroke="#000000" points="360,-67.5 519.8691,-67.5 "/>
<text text-anchor="start" x="368" y="-52.3" font-family="Times,serif" font-size="14.00" fill="#000000">_layout</text>
</g>
</g>
</svg>
