<?xml version="1.0" encoding="UTF-8" standalone="no"?>
<!DOCTYPE svg PUBLIC "-//W3C//DTD SVG 1.1//EN"
 "http://www.w3.org/Graphics/SVG/1.1/DTD/svg11.dtd">
<!-- Generated by graphviz version 2.40.1 (20161225.0304)
 -->
<!-- Title: models_diagram Pages: 1 -->
<svg width="414pt" height="300pt"
 viewBox="0.00 0.00 413.56 300.00" xmlns="http://www.w3.org/2000/svg" xmlns:xlink="http://www.w3.org/1999/xlink">
<g id="graph0" class="graph" transform="scale(1 1) rotate(0) translate(4 296)">
<title>models_diagram</title>
<polygon fill="transparent" stroke="transparent" points="-4,4 -4,-296 409.5603,-296 409.5603,4 -4,4"/>
<!-- _diagram_info -->
<g id="node1" class="node">
<title>_diagram_info</title>
<text text-anchor="start" x="8" y="-277.6" font-family="Times,serif" font-size="13.00" fill="#000000">Models diagram</text>
<text text-anchor="start" x="8" y="-264.6" font-family="Times,serif" font-size="13.00" fill="#000000">Date: Jun 01 2017 &#45; 20:18</text>
<text text-anchor="start" x="8" y="-251.6" font-family="Times,serif" font-size="13.00" fill="#000000">Migration version: 20160510201249</text>
<text text-anchor="start" x="8" y="-238.6" font-family="Times,serif" font-size="13.00" fill="#000000">Generated by RailRoady 1.4.2</text>
<text text-anchor="start" x="8" y="-225.6" font-family="Times,serif" font-size="13.00" fill="#000000">http://railroady.prestonlee.com</text>
</g>
<!-- Folder -->
<g id="node2" class="node">
<title>Folder</title>
<ellipse fill="none" stroke="#000000" cx="191.6877" cy="-91" rx="33.3925" ry="18"/>
<text text-anchor="middle" x="191.6877" y="-86.8" font-family="Times,serif" font-size="14.00" fill="#000000">Folder</text>
</g>
<!-- Folder&#45;&gt;Folder -->
<g id="edge2" class="edge">
<title>Folder&#45;&gt;Folder</title>
<path fill="none" stroke="#fe6ed5" d="M230.9817,-97.3525C237.9896,-96.5255 242.8834,-94.408 242.8834,-91 242.8834,-87.8821 238.7872,-85.8443 232.7233,-84.8867"/>
<ellipse fill="none" stroke="#fe6ed5" cx="226.6747" cy="-97.5552" rx="4" ry="4"/>
<polygon fill="#fe6ed5" stroke="#fe6ed5" points="232.6595,-84.8828 222.9609,-79.7654 227.6693,-84.5697 222.6791,-84.2566 222.6791,-84.2566 222.6791,-84.2566 227.6693,-84.5697 222.3973,-88.7478 232.6595,-84.8828 232.6595,-84.8828"/>
<text text-anchor="middle" x="272.0455" y="-86.8" font-family="Times,serif" font-size="14.00" fill="#000000">subfolders</text>
</g>
<!-- Item -->
<g id="node3" class="node">
<title>Item</title>
<ellipse fill="none" stroke="#000000" cx="259.6877" cy="-18" rx="27" ry="18"/>
<text text-anchor="middle" x="259.6877" y="-13.8" font-family="Times,serif" font-size="14.00" fill="#000000">Item</text>
</g>
<!-- Folder&#45;&gt;Item -->
<g id="edge1" class="edge">
<title>Folder&#45;&gt;Item</title>
<path fill="none" stroke="#76e851" d="M212.4083,-68.7559C220.581,-59.9822 229.9682,-49.9048 238.2131,-41.0537"/>
<ellipse fill="none" stroke="#76e851" cx="209.5056" cy="-71.872" rx="4" ry="4"/>
<polygon fill="#76e851" stroke="#76e851" points="238.2892,-40.972 248.398,-36.722 241.6972,-37.3134 245.1053,-33.6547 245.1053,-33.6547 245.1053,-33.6547 241.6972,-37.3134 241.8125,-30.5875 238.2892,-40.972 238.2892,-40.972"/>
</g>
<!-- Locale -->
<g id="node4" class="node">
<title>Locale</title>
<ellipse fill="none" stroke="#000000" cx="259.6877" cy="-255.5" rx="34.3267" ry="18"/>
<text text-anchor="middle" x="259.6877" y="-251.3" font-family="Times,serif" font-size="14.00" fill="#000000">Locale</text>
</g>
<!-- User -->
<g id="node5" class="node">
<title>User</title>
<ellipse fill="none" stroke="#000000" cx="259.6877" cy="-164" rx="27" ry="18"/>
<text text-anchor="middle" x="259.6877" y="-159.8" font-family="Times,serif" font-size="14.00" fill="#000000">User</text>
</g>
<!-- Locale&#45;&gt;User -->
<g id="edge3" class="edge">
<title>Locale&#45;&gt;User</title>
<path fill="none" stroke="#d4de1d" d="M259.6877,-229.0044C259.6877,-217.4617 259.6877,-203.9188 259.6877,-192.1908"/>
<ellipse fill="none" stroke="#d4de1d" cx="259.6878" cy="-233.4225" rx="4" ry="4"/>
<polygon fill="#d4de1d" stroke="#d4de1d" points="259.6878,-192.0399 264.1877,-182.0399 259.6878,-187.0399 259.6877,-182.0399 259.6877,-182.0399 259.6877,-182.0399 259.6878,-187.0399 255.1877,-182.0399 259.6878,-192.0399 259.6878,-192.0399"/>
</g>
<!-- User&#45;&gt;Folder -->
<g id="edge4" class="edge">
<title>User&#45;&gt;Folder</title>
<path fill="none" stroke="#570b3c" d="M239.6789,-142.5199C231.5441,-133.787 222.115,-123.6646 213.7791,-114.7157"/>
<ellipse fill="none" stroke="#570b3c" cx="242.5403" cy="-145.5917" rx="4" ry="4"/>
<polygon fill="#570b3c" stroke="#570b3c" points="213.611,-114.5353 210.0877,-104.1508 210.203,-110.8767 206.795,-107.2181 206.795,-107.2181 206.795,-107.2181 210.203,-110.8767 203.5022,-110.2853 213.611,-114.5353 213.611,-114.5353"/>
</g>
<!-- User&#45;&gt;Item -->
<g id="edge5" class="edge">
<title>User&#45;&gt;Item</title>
<path fill="none" stroke="#b84026" d="M283.8023,-144.7422C293.8357,-135.1901 304.3698,-122.7553 309.6877,-109 315.4573,-94.0765 315.4573,-87.9235 309.6877,-73 304.6207,-59.8935 294.8179,-47.9859 285.2249,-38.6285"/>
<ellipse fill="none" stroke="#b84026" cx="280.6338" cy="-147.616" rx="4" ry="4"/>
<polygon fill="#b84026" stroke="#b84026" points="285.0389,-38.4579 280.7135,-28.3811 281.3549,-35.0773 277.6709,-31.6967 277.6709,-31.6967 277.6709,-31.6967 281.3549,-35.0773 274.6284,-35.0123 285.0389,-38.4579 285.0389,-38.4579"/>
</g>
<!-- UserObserver -->
<g id="node6" class="node">
<title>UserObserver</title>
<polygon fill="none" stroke="#000000" points="405.4332,-273.5 311.9423,-273.5 311.9423,-237.5 405.4332,-237.5 405.4332,-273.5"/>
<text text-anchor="middle" x="358.6877" y="-251.3" font-family="Times,serif" font-size="14.00" fill="#000000">UserObserver</text>
</g>
</g>
</svg>
