<?xml version="1.0" encoding="UTF-8" standalone="no"?>
<!DOCTYPE svg PUBLIC "-//W3C//DTD SVG 1.1//EN"
 "http://www.w3.org/Graphics/SVG/1.1/DTD/svg11.dtd">
<!-- Generated by graphviz version 2.40.1 (20161225.0304)
 -->
<!-- Title: models_diagram Pages: 1 -->
<svg width="472pt" height="859pt"
 viewBox="0.00 0.00 471.56 859.00" xmlns="http://www.w3.org/2000/svg" xmlns:xlink="http://www.w3.org/1999/xlink">
<g id="graph0" class="graph" transform="scale(1 1) rotate(0) translate(4 855)">
<title>models_diagram</title>
<polygon fill="transparent" stroke="transparent" points="-4,4 -4,-855 467.5603,-855 467.5603,4 -4,4"/>
<!-- _diagram_info -->
<g id="node1" class="node">
<title>_diagram_info</title>
<text text-anchor="start" x="8" y="-836.6" font-family="Times,serif" font-size="13.00" fill="#000000">Models diagram</text>
<text text-anchor="start" x="8" y="-823.6" font-family="Times,serif" font-size="13.00" fill="#000000">Date: Jun 01 2017 &#45; 20:18</text>
<text text-anchor="start" x="8" y="-810.6" font-family="Times,serif" font-size="13.00" fill="#000000">Migration version: 20160510201249</text>
<text text-anchor="start" x="8" y="-797.6" font-family="Times,serif" font-size="13.00" fill="#000000">Generated by RailRoady 1.4.2</text>
<text text-anchor="start" x="8" y="-784.6" font-family="Times,serif" font-size="13.00" fill="#000000">http://railroady.prestonlee.com</text>
</g>
<!-- Folder -->
<g id="node2" class="node">
<title>Folder</title>
<path fill="none" stroke="#000000" d="M142.7629,-208.5C142.7629,-208.5 260.6125,-208.5 260.6125,-208.5 266.6125,-208.5 272.6125,-214.5 272.6125,-220.5 272.6125,-220.5 272.6125,-338.5 272.6125,-338.5 272.6125,-344.5 266.6125,-350.5 260.6125,-350.5 260.6125,-350.5 142.7629,-350.5 142.7629,-350.5 136.7629,-350.5 130.7629,-344.5 130.7629,-338.5 130.7629,-338.5 130.7629,-220.5 130.7629,-220.5 130.7629,-214.5 136.7629,-208.5 142.7629,-208.5"/>
<text text-anchor="middle" x="201.6877" y="-335.3" font-family="Times,serif" font-size="14.00" fill="#000000">Folder</text>
<polyline fill="none" stroke="#000000" points="130.7629,-328.5 272.6125,-328.5 "/>
<text text-anchor="start" x="138.7629" y="-313.3" font-family="Times,serif" font-size="14.00" fill="#000000">deleted_at :datetime</text>
<text text-anchor="start" x="138.7629" y="-299.3" font-family="Times,serif" font-size="14.00" fill="#000000">title :varchar(255)</text>
<text text-anchor="start" x="138.7629" y="-285.3" font-family="Times,serif" font-size="14.00" fill="#000000">root_folder_id :int(11)</text>
<text text-anchor="start" x="138.7629" y="-271.3" font-family="Times,serif" font-size="14.00" fill="#000000">user_id :int(11)</text>
<text text-anchor="start" x="138.7629" y="-257.3" font-family="Times,serif" font-size="14.00" fill="#000000">created_at :datetime</text>
<text text-anchor="start" x="138.7629" y="-243.3" font-family="Times,serif" font-size="14.00" fill="#000000">updated_at :datetime</text>
<text text-anchor="start" x="138.7629" y="-229.3" font-family="Times,serif" font-size="14.00" fill="#000000">slug :varchar(255)</text>
<text text-anchor="start" x="138.7629" y="-215.3" font-family="Times,serif" font-size="14.00" fill="#000000">id :int(11)</text>
</g>
<!-- Folder&#45;&gt;Folder -->
<g id="edge2" class="edge">
<title>Folder&#45;&gt;Folder</title>
<path fill="none" stroke="#d84da2" d="M280.4996,-292.3336C286.7483,-289.5223 290.6125,-285.2445 290.6125,-279.5 290.6125,-274.3666 287.5267,-270.4044 282.4111,-267.6134"/>
<ellipse fill="none" stroke="#d84da2" cx="276.659" cy="-293.5766" rx="4" ry="4"/>
<polygon fill="#d84da2" stroke="#d84da2" points="282.2682,-267.5623 274.3702,-259.9549 277.5608,-265.8769 272.8533,-264.1916 272.8533,-264.1916 272.8533,-264.1916 277.5608,-265.8769 271.3365,-268.4282 282.2682,-267.5623 282.2682,-267.5623"/>
<text text-anchor="middle" x="319.7747" y="-275.3" font-family="Times,serif" font-size="14.00" fill="#000000">subfolders</text>
</g>
<!-- Item -->
<g id="node3" class="node">
<title>Item</title>
<path fill="none" stroke="#000000" d="M226.803,-.5C226.803,-.5 350.5725,-.5 350.5725,-.5 356.5725,-.5 362.5725,-6.5 362.5725,-12.5 362.5725,-12.5 362.5725,-158.5 362.5725,-158.5 362.5725,-164.5 356.5725,-170.5 350.5725,-170.5 350.5725,-170.5 226.803,-170.5 226.803,-170.5 220.803,-170.5 214.803,-164.5 214.803,-158.5 214.803,-158.5 214.803,-12.5 214.803,-12.5 214.803,-6.5 220.803,-.5 226.803,-.5"/>
<text text-anchor="middle" x="288.6877" y="-155.3" font-family="Times,serif" font-size="14.00" fill="#000000">Item</text>
<polyline fill="none" stroke="#000000" points="214.803,-148.5 362.5725,-148.5 "/>
<text text-anchor="start" x="222.803" y="-133.3" font-family="Times,serif" font-size="14.00" fill="#000000">share_url :varchar(255)</text>
<text text-anchor="start" x="222.803" y="-119.3" font-family="Times,serif" font-size="14.00" fill="#000000">file :varchar(255)</text>
<text text-anchor="start" x="222.803" y="-105.3" font-family="Times,serif" font-size="14.00" fill="#000000">folder_id :int(11)</text>
<text text-anchor="start" x="222.803" y="-91.3" font-family="Times,serif" font-size="14.00" fill="#000000">user_id :int(11)</text>
<text text-anchor="start" x="222.803" y="-77.3" font-family="Times,serif" font-size="14.00" fill="#000000">created_at :datetime</text>
<text text-anchor="start" x="222.803" y="-63.3" font-family="Times,serif" font-size="14.00" fill="#000000">updated_at :datetime</text>
<text text-anchor="start" x="222.803" y="-49.3" font-family="Times,serif" font-size="14.00" fill="#000000">removed :tinyint(1)</text>
<text text-anchor="start" x="222.803" y="-35.3" font-family="Times,serif" font-size="14.00" fill="#000000">favorite :tinyint(1)</text>
<text text-anchor="start" x="222.803" y="-21.3" font-family="Times,serif" font-size="14.00" fill="#000000">deleted_at :datetime</text>
<text text-anchor="start" x="222.803" y="-7.3" font-family="Times,serif" font-size="14.00" fill="#000000">id :int(11)</text>
</g>
<!-- Folder&#45;&gt;Item -->
<g id="edge1" class="edge">
<title>Folder&#45;&gt;Item</title>
<path fill="none" stroke="#851802" d="M236.9583,-200.8508C240.0108,-194.044 243.1194,-187.1121 246.221,-180.1959"/>
<ellipse fill="none" stroke="#851802" cx="235.2261" cy="-204.7134" rx="4" ry="4"/>
<polygon fill="#851802" stroke="#851802" points="246.3483,-179.912 254.5463,-172.6289 248.3943,-175.3498 250.4403,-170.7875 250.4403,-170.7875 250.4403,-170.7875 248.3943,-175.3498 246.3342,-168.9461 246.3483,-179.912 246.3483,-179.912"/>
</g>
<!-- Locale -->
<g id="node4" class="node">
<title>Locale</title>
<path fill="none" stroke="#000000" d="M237.6892,-778.5C237.6892,-778.5 339.6863,-778.5 339.6863,-778.5 345.6863,-778.5 351.6863,-784.5 351.6863,-790.5 351.6863,-790.5 351.6863,-838.5 351.6863,-838.5 351.6863,-844.5 345.6863,-850.5 339.6863,-850.5 339.6863,-850.5 237.6892,-850.5 237.6892,-850.5 231.6892,-850.5 225.6892,-844.5 225.6892,-838.5 225.6892,-838.5 225.6892,-790.5 225.6892,-790.5 225.6892,-784.5 231.6892,-778.5 237.6892,-778.5"/>
<text text-anchor="middle" x="288.6877" y="-835.3" font-family="Times,serif" font-size="14.00" fill="#000000">Locale</text>
<polyline fill="none" stroke="#000000" points="225.6892,-828.5 351.6863,-828.5 "/>
<text text-anchor="start" x="233.6892" y="-813.3" font-family="Times,serif" font-size="14.00" fill="#000000">id :int(11)</text>
<text text-anchor="start" x="233.6892" y="-799.3" font-family="Times,serif" font-size="14.00" fill="#000000">title :varchar(255)</text>
<text text-anchor="start" x="233.6892" y="-785.3" font-family="Times,serif" font-size="14.00" fill="#000000">name :varchar(255)</text>
</g>
<!-- User -->
<g id="node5" class="node">
<title>User</title>
<path fill="none" stroke="#000000" d="M190.6409,-388.5C190.6409,-388.5 386.7346,-388.5 386.7346,-388.5 392.7346,-388.5 398.7346,-394.5 398.7346,-400.5 398.7346,-400.5 398.7346,-728.5 398.7346,-728.5 398.7346,-734.5 392.7346,-740.5 386.7346,-740.5 386.7346,-740.5 190.6409,-740.5 190.6409,-740.5 184.6409,-740.5 178.6409,-734.5 178.6409,-728.5 178.6409,-728.5 178.6409,-400.5 178.6409,-400.5 178.6409,-394.5 184.6409,-388.5 190.6409,-388.5"/>
<text text-anchor="middle" x="288.6877" y="-725.3" font-family="Times,serif" font-size="14.00" fill="#000000">User</text>
<polyline fill="none" stroke="#000000" points="178.6409,-718.5 398.7346,-718.5 "/>
<text text-anchor="start" x="186.6409" y="-703.3" font-family="Times,serif" font-size="14.00" fill="#000000">locale_id :int(11)</text>
<text text-anchor="start" x="186.6409" y="-689.3" font-family="Times,serif" font-size="14.00" fill="#000000">email :varchar(255)</text>
<text text-anchor="start" x="186.6409" y="-675.3" font-family="Times,serif" font-size="14.00" fill="#000000">encrypted_password :varchar(255)</text>
<text text-anchor="start" x="186.6409" y="-661.3" font-family="Times,serif" font-size="14.00" fill="#000000">reset_password_token :varchar(255)</text>
<text text-anchor="start" x="186.6409" y="-647.3" font-family="Times,serif" font-size="14.00" fill="#000000">reset_password_sent_at :datetime</text>
<text text-anchor="start" x="186.6409" y="-633.3" font-family="Times,serif" font-size="14.00" fill="#000000">remember_created_at :datetime</text>
<text text-anchor="start" x="186.6409" y="-619.3" font-family="Times,serif" font-size="14.00" fill="#000000">sign_in_count :int(11)</text>
<text text-anchor="start" x="186.6409" y="-605.3" font-family="Times,serif" font-size="14.00" fill="#000000">current_sign_in_at :datetime</text>
<text text-anchor="start" x="186.6409" y="-591.3" font-family="Times,serif" font-size="14.00" fill="#000000">last_sign_in_at :datetime</text>
<text text-anchor="start" x="186.6409" y="-577.3" font-family="Times,serif" font-size="14.00" fill="#000000">current_sign_in_ip :varchar(255)</text>
<text text-anchor="start" x="186.6409" y="-563.3" font-family="Times,serif" font-size="14.00" fill="#000000">last_sign_in_ip :varchar(255)</text>
<text text-anchor="start" x="186.6409" y="-549.3" font-family="Times,serif" font-size="14.00" fill="#000000">confirmation_token :varchar(255)</text>
<text text-anchor="start" x="186.6409" y="-535.3" font-family="Times,serif" font-size="14.00" fill="#000000">confirmed_at :datetime</text>
<text text-anchor="start" x="186.6409" y="-521.3" font-family="Times,serif" font-size="14.00" fill="#000000">confirmation_sent_at :datetime</text>
<text text-anchor="start" x="186.6409" y="-507.3" font-family="Times,serif" font-size="14.00" fill="#000000">unconfirmed_email :varchar(255)</text>
<text text-anchor="start" x="186.6409" y="-493.3" font-family="Times,serif" font-size="14.00" fill="#000000">failed_attempts :int(11)</text>
<text text-anchor="start" x="186.6409" y="-479.3" font-family="Times,serif" font-size="14.00" fill="#000000">unlock_token :varchar(255)</text>
<text text-anchor="start" x="186.6409" y="-465.3" font-family="Times,serif" font-size="14.00" fill="#000000">locked_at :datetime</text>
<text text-anchor="start" x="186.6409" y="-451.3" font-family="Times,serif" font-size="14.00" fill="#000000">created_at :datetime</text>
<text text-anchor="start" x="186.6409" y="-437.3" font-family="Times,serif" font-size="14.00" fill="#000000">updated_at :datetime</text>
<text text-anchor="start" x="186.6409" y="-423.3" font-family="Times,serif" font-size="14.00" fill="#000000">space :int(11)</text>
<text text-anchor="start" x="186.6409" y="-409.3" font-family="Times,serif" font-size="14.00" fill="#000000">time_zone :varchar(255)</text>
<text text-anchor="start" x="186.6409" y="-395.3" font-family="Times,serif" font-size="14.00" fill="#000000">id :int(11)</text>
</g>
<!-- Locale&#45;&gt;User -->
<g id="edge3" class="edge">
<title>Locale&#45;&gt;User</title>
<path fill="none" stroke="#e6eb8f" d="M288.6877,-770.3625C288.6877,-764.2576 288.6877,-757.702 288.6877,-750.8164"/>
<ellipse fill="none" stroke="#e6eb8f" cx="288.6878" cy="-774.4148" rx="4" ry="4"/>
<polygon fill="#e6eb8f" stroke="#e6eb8f" points="288.6878,-750.5061 293.1877,-740.5061 288.6878,-745.5061 288.6877,-740.5061 288.6877,-740.5061 288.6877,-740.5061 288.6878,-745.5061 284.1877,-740.5062 288.6878,-750.5061 288.6878,-750.5061"/>
</g>
<!-- User&#45;&gt;Folder -->
<g id="edge4" class="edge">
<title>User&#45;&gt;Folder</title>
<path fill="none" stroke="#26ba65" d="M232.5243,-380.5163C230.4569,-373.7437 228.4312,-367.108 226.4684,-360.6781"/>
<ellipse fill="none" stroke="#26ba65" cx="233.7832" cy="-384.6405" rx="4" ry="4"/>
<polygon fill="#26ba65" stroke="#26ba65" points="226.3585,-360.3176 227.7427,-349.4395 224.8986,-355.5355 223.4388,-350.7533 223.4388,-350.7533 223.4388,-350.7533 224.8986,-355.5355 219.1348,-352.0672 226.3585,-360.3176 226.3585,-360.3176"/>
</g>
<!-- User&#45;&gt;Item -->
<g id="edge5" class="edge">
<title>User&#45;&gt;Item</title>
<path fill="none" stroke="#55b2c2" d="M355.7848,-380.6559C367.7079,-324.8595 372.2744,-263.6187 357.6877,-208 355.2264,-198.6148 351.8658,-189.1907 347.9446,-179.966"/>
<ellipse fill="none" stroke="#55b2c2" cx="354.9172" cy="-384.5857" rx="4" ry="4"/>
<polygon fill="#55b2c2" stroke="#55b2c2" points="347.9348,-179.944 347.9563,-168.9781 345.8919,-175.3803 343.8491,-170.8167 343.8491,-170.8167 343.8491,-170.8167 345.8919,-175.3803 339.7418,-172.6553 347.9348,-179.944 347.9348,-179.944"/>
</g>
<!-- UserObserver -->
<g id="node6" class="node">
<title>UserObserver</title>
<polygon fill="none" stroke="#000000" points="369.8152,-792.5 369.8152,-836.5 463.5603,-836.5 463.5603,-792.5 369.8152,-792.5"/>
<text text-anchor="middle" x="416.6877" y="-821.3" font-family="Times,serif" font-size="14.00" fill="#000000">UserObserver</text>
<polyline fill="none" stroke="#000000" points="369.8152,-814.5 463.5603,-814.5 "/>
<text text-anchor="middle" x="416.6877" y="-799.3" font-family="Times,serif" font-size="14.00" fill="#000000"> </text>
</g>
</g>
</svg>
